<svg height="472pt" viewBox="-36 0 472 472" width="472pt" xmlns="http://www.w3.org/2000/svg"><path d="m224 472h-192c-17.671875 0-32-14.328125-32-32v-400c0-17.671875 14.328125-32 32-32h192c17.671875 0 32 14.328125 32 32v400c0 17.671875-14.328125 32-32 32zm0 0" fill="#5a6470"/><path d="m144 424c0 8.835938-7.164062 16-16 16s-16-7.164062-16-16 7.164062-16 16-16 16 7.164062 16 16zm0 0" fill="#aabece"/><path d="m96 32h80v16h-80zm0 0" fill="#aabece"/><path d="m224 376h-192v-304h192zm0 0" fill="#cdeef6"/><path d="m64 32h16v16h-16zm0 0" fill="#aabece"/><path d="m224 74.078125v299.84375c-68.449219-10.910156-120.839844-66.757813-127.359375-135.761719-.402344-4.640625-.640625-9.359375-.640625-14.160156.050781-74.628906 54.300781-138.167969 128-149.921875zm0 0" fill="#32b1cc"/><path d="m224 74.078125v59.601563l-16 2.320312-24 40h-16l-16 32h-24l-16 24-15.359375 6.160156c-.402344-4.640625-.640625-9.359375-.640625-14.160156.050781-74.628906 54.300781-138.167969 128-149.921875zm0 0" fill="#c8d952"/><path d="m224 296v77.921875c-50.527344-8.089844-93.605469-41.035156-114.640625-87.683594l18.640625-6.238281h16l16 16 32 16 8-16zm0 0" fill="#c8d952"/><path d="m224 194-24 30-16 8-16 16h56zm0 0" fill="#c8d952"/><g fill="#31b1cc"><path d="m56 96h16v16h-16zm0 0"/><path d="m88 96h32v16h-32zm0 0"/><path d="m88 352h-32v-48h16v32h16zm0 0"/><path d="m104 336h16v16h-16zm0 0"/></g><path d="m336 128h-16c0-47.457031-38.398438-48-40-48v-16c.558594 0 56 .726562 56 64zm0 0" fill="#32b1cc"/><path d="m368 128h-16c0-79.089844-69.054688-80-72-80v-16c.878906 0 88 1.097656 88 96zm0 0" fill="#32b1cc"/><path d="m400 128h-16c0-110.726562-99.753906-112-104-112v-16c1.199219 0 120 1.464844 120 128zm0 0" fill="#32b1cc"/></svg>